<?xml version="1.0" encoding="UTF-8" standalone="no"?>
<!-- Created with Inkscape (http://www.inkscape.org/) -->

<svg
   width="227.601"
   height="227.60098"
   viewBox="0 0 60.21943 60.219425"
   version="1.1"
   id="svg8"
   xml:space="preserve"
   xmlns="http://www.w3.org/2000/svg"
   xmlns:svg="http://www.w3.org/2000/svg"
   xmlns:rdf="http://www.w3.org/1999/02/22-rdf-syntax-ns#"
   xmlns:cc="http://creativecommons.org/ns#"
   xmlns:dc="http://purl.org/dc/elements/1.1/"><defs
     id="defs2" /><metadata
     id="metadata5"><rdf:RDF><cc:Work
         rdf:about=""><dc:format>image/svg+xml</dc:format><dc:type
           rdf:resource="http://purl.org/dc/dcmitype/StillImage" /><dc:title /></cc:Work></rdf:RDF></metadata><g
     id="layer1"
     transform="translate(-208.13432,-165.08252)"
     style="display:inline"><path
       d="m 238.24404,201.2141 c -3.32119,0 -6.0221,-2.70091 -6.0221,-6.02209 0,-3.32118 2.70091,-6.02209 6.0221,-6.02209 3.32118,0 6.02209,2.70091 6.02209,6.02209 0,3.32118 -2.70091,6.02209 -6.02209,6.02209 z m 24.07633,-14.56744 c -1.17732,-1.17732 -3.08331,-1.17732 -4.26064,0 -1.1743,1.17431 -1.17731,3.08331 0,4.25762 l 1.27368,1.27668 h -9.46975 c -1.09301,-3.01104 -4.3901,-7.51557 -8.60858,-8.60858 v -9.47877 l 1.27668,1.27668 c 1.17431,1.17732 3.08332,1.17732 4.25763,0 1.17732,-1.17431 1.17732,-3.0803 0,-4.25762 l -4.29677,-4.27568 c -2.34861,-2.33929 -6.14856,-2.33929 -8.49717,0 l -4.29676,4.27568 c -1.17733,1.17732 -1.17733,3.08331 0,4.25762 1.1743,1.17732 3.08331,1.17732 4.25762,0 l 1.27668,-1.27668 v 9.47877 c -4.21848,1.09301 -7.51557,5.59754 -8.60858,8.60858 h -9.46974 l 1.27668,-1.27668 c 1.17431,-1.17431 1.17431,-3.08331 0,-4.25762 -1.17732,-1.17732 -3.08632,-1.17732 -4.26364,0 l -4.2787,4.29676 c -2.33958,2.34862 -2.33958,6.14856 0,8.49718 l 4.2787,4.29676 c 1.17732,1.17732 3.08331,1.17732 4.26063,0 1.17431,-1.17431 1.17732,-3.08331 0,-4.25762 l -1.27367,-1.27668 h 9.46974 c 1.09301,3.01104 4.3901,7.51557 8.60858,8.60858 v 9.47877 l -1.27668,-1.27668 c -1.17431,-1.17732 -3.08332,-1.17732 -4.25762,0 -1.17733,1.17431 -1.17733,3.0803 0,4.25762 l 4.29676,4.27569 c 2.34861,2.33988 6.14856,2.33988 8.49717,0 l 4.29677,-4.27569 c 1.17732,-1.17732 1.17732,-3.08331 0,-4.25762 -1.17431,-1.17732 -3.08332,-1.17732 -4.25763,0 l -1.27668,1.27668 v -9.47877 c 4.21848,-1.09301 7.51557,-5.59754 8.60858,-8.60858 h 9.46975 l -1.27669,1.27668 c -1.1743,1.17431 -1.1743,3.08331 0,4.25762 1.17732,1.17732 3.08633,1.17732 4.26365,0 l 4.2787,-4.29676 c 2.33958,-2.34862 2.33958,-6.14856 0,-8.49718 z"
       id="arrow_all-[#331]"
       style="fill:#000000;fill-rule:evenodd;stroke:none;stroke-width:3.01104" /></g></svg>
