<?xml version="1.0" encoding="UTF-8" standalone="no"?>
<!-- Created with Inkscape (http://www.inkscape.org/) -->

<svg
   width="198.43518"
   height="167.38039"
   viewBox="0 0 52.502641 44.28606"
   version="1.1"
   id="svg8"
   xml:space="preserve"
   xmlns="http://www.w3.org/2000/svg"
   xmlns:svg="http://www.w3.org/2000/svg"
   xmlns:rdf="http://www.w3.org/1999/02/22-rdf-syntax-ns#"
   xmlns:cc="http://creativecommons.org/ns#"
   xmlns:dc="http://purl.org/dc/elements/1.1/"><defs
     id="defs2" /><metadata
     id="metadata5"><rdf:RDF><cc:Work
         rdf:about=""><dc:format>image/svg+xml</dc:format><dc:type
           rdf:resource="http://purl.org/dc/dcmitype/StillImage" /><dc:title /></cc:Work></rdf:RDF></metadata><g
     id="layer3"
     style="display:inline"
     transform="translate(-211.18169,-151.42716)"><g
       style="display:inline;fill:none"
       id="g3-3-0-3-0"
       transform="matrix(1.8895481,0,0,1.8895481,211.84758,149.94505)"><path
         d="M 14.244351,4.7217557 V 12.221756 5.7217557 c 0,-0.82843 0.6716,-1.5 1.5,-1.5 0.8284,0 1.5,0.67157 1.5,1.5 V 12.221756 8.7217557 c 0,-0.82843 0.6716,-1.5 1.5,-1.5 0.8284,0 1.5,0.67157 1.5,1.5 v 8.5000003 c 0,3.3137 -2.6863,6 -6,6 h -1.1273 c -1.5244,0 -2.99158,-0.5802 -4.1036599,-1.6228 l -4.95859,-4.6487 c -0.7168,-0.672 -0.73505,-1.8039 -0.04029,-2.4987 0.67923,-0.6792 1.78047,-0.6792 2.45969,0 l 1.77016,1.7702 V 7.7217557 c 0,-0.82843 0.67157,-1.5 1.5,-1.5 0.8283899,0 1.4999899,0.67157 1.4999899,1.5 V 12.221756 4.7217557 c 0,-0.82843 0.6716,-1.5 1.5,-1.5 0.8284,0 1.5,0.67157 1.5,1.5 z"
         stroke="#000000"
         stroke-width="2"
         stroke-linecap="round"
         stroke-linejoin="round"
         id="path1-6-9-3-1-2" /><path
         id="arrow_up-[#337]-9-5-7-7"
         d="m 21.799602,1.1798963 v 0 c 0.214517,-0.22713749 0.561802,-0.22713749 0.775789,0 l 4.53664,4.8158159 c 0.428504,0.454852 0.428504,1.1927472 0,1.6475933 L 22.54249,12.494653 c -0.212344,0.224807 -0.555232,0.227715 -0.770279,0.0058 -0.220026,-0.226549 -0.222198,-0.599864 -0.0058,-0.82991 l 4.182203,-4.4390094 c 0.214516,-0.2277144 0.214516,-0.5963736 0,-0.824088 l -4.1488,-4.4040382 c -0.214517,-0.2271375 -0.214517,-0.5963736 0,-0.8235053"
         style="fill:#000000;fill-rule:evenodd;stroke:none;stroke-width:0.555659" /><path
         id="arrow_up-[#337]-9-5-8"
         d="m 5.2813978,0.9547263 v 0 c -0.2145168,-0.22713749 -0.5618019,-0.22713749 -0.7757889,0 l -4.53664034,4.8158159 c -0.42850374,0.454852 -0.42850374,1.1927472 0,1.6475933 L 4.5385096,12.269483 c 0.2123446,0.224807 0.5552324,0.227715 0.7702789,0.0058 0.2200267,-0.226549 0.2221989,-0.599864 0.00583,-0.82991 L 1.1324134,7.0063916 c -0.21451673,-0.2277144 -0.21451673,-0.5963736 0,-0.824088 L 5.2811859,1.7782374 c 0.2145167,-0.2271375 0.2145167,-0.5963736 0,-0.82350527"
         style="fill:#000000;fill-rule:evenodd;stroke:none;stroke-width:0.555659" /></g></g></svg>
