<?xml version="1.0" encoding="UTF-8" standalone="no"?>
<!-- Created with Inkscape (http://www.inkscape.org/) -->

<svg
   width="221.30756"
   height="255.99818"
   viewBox="0 0 58.55429 67.732852"
   version="1.1"
   id="svg8"
   xml:space="preserve"
   xmlns="http://www.w3.org/2000/svg"
   xmlns:svg="http://www.w3.org/2000/svg"
   xmlns:rdf="http://www.w3.org/1999/02/22-rdf-syntax-ns#"
   xmlns:cc="http://creativecommons.org/ns#"
   xmlns:dc="http://purl.org/dc/elements/1.1/"><defs
     id="defs2" /><metadata
     id="metadata5"><rdf:RDF><cc:Work
         rdf:about=""><dc:format>image/svg+xml</dc:format><dc:type
           rdf:resource="http://purl.org/dc/dcmitype/StillImage" /><dc:title /></cc:Work></rdf:RDF></metadata><g
     id="layer18"
     transform="translate(-5.291911,-203.20024)"><g
       style="display:inline;fill:none"
       id="g4"
       transform="matrix(3.6062399,0,0,3.6062399,-9.0943663,193.79193)"><path
         d="m 16.6582,9.28638 c 1.4398,0.89982 2.1596,1.34972 2.4065,1.92582 0.2156,0.503 0.2156,1.0725 0,1.5756 -0.2469,0.576 -0.9667,1.0259 -2.4065,1.9258 L 9.896,18.94 C 8.29805,19.9387 7.49907,20.4381 6.83973,20.385 6.26501,20.3388 5.73818,20.0469 5.3944,19.584 5,19.053 5,18.1108 5,16.2264 V 7.77357 C 5,5.88919 5,4.94701 5.3944,4.41598 5.73818,3.9531 6.26501,3.66111 6.83973,3.6149 7.49907,3.5619 8.29805,4.06126 9.896,5.05998 Z"
         stroke="#000000"
         stroke-width="2"
         stroke-linejoin="round"
         id="path1-7"
         style="stroke-width:1.99987;stroke-dasharray:none" /></g></g></svg>
