<?xml version="1.0" encoding="UTF-8" standalone="no"?>
<!-- Created with Inkscape (http://www.inkscape.org/) -->

<svg
   width="244.99026"
   height="205.27795"
   viewBox="0 0 64.82034 54.313124"
   version="1.1"
   id="svg8"
   xml:space="preserve"
   xmlns="http://www.w3.org/2000/svg"
   xmlns:svg="http://www.w3.org/2000/svg"
   xmlns:rdf="http://www.w3.org/1999/02/22-rdf-syntax-ns#"
   xmlns:cc="http://creativecommons.org/ns#"
   xmlns:dc="http://purl.org/dc/elements/1.1/"><defs
     id="defs2" /><metadata
     id="metadata5"><rdf:RDF><cc:Work
         rdf:about=""><dc:format>image/svg+xml</dc:format><dc:type
           rdf:resource="http://purl.org/dc/dcmitype/StillImage" /><dc:title /></cc:Work></rdf:RDF></metadata><g
     id="layer7"
     style="display:inline"
     transform="translate(-1.8261249,-141.18008)"><g
       style="display:inline;fill:none"
       id="g3"
       transform="matrix(2.4687785,0,0,2.4687785,14.802117,138.7113)"><path
         d="M 14,3.5 V 11 4.5 C 14,3.67157 14.6716,3 15.5,3 16.3284,3 17,3.67157 17,4.5 V 11 7.5 C 17,6.67157 17.6716,6 18.5,6 19.3284,6 20,6.67157 20,7.5 V 16 c 0,3.3137 -2.6863,6 -6,6 H 12.8727 C 11.3483,22 9.88112,21.4198 8.76904,20.3772 L 3.81045,15.7285 c -0.7168,-0.672 -0.73505,-1.8039 -0.04029,-2.4987 0.67923,-0.6792 1.78047,-0.6792 2.45969,0 L 8.00001,15 V 6.5 c 0,-0.82843 0.67157,-1.5 1.5,-1.5 C 10.3284,5 11,5.67157 11,6.5 V 11 3.5 C 11,2.67157 11.6716,2 12.5,2 13.3284,2 14,2.67157 14,3.5 Z"
         stroke="#000000"
         stroke-width="2"
         stroke-linecap="round"
         stroke-linejoin="round"
         id="path1-6" /><path
         d="m 5.6918417,116.79814 3.4063723,-3.26963 c 0.7332,-0.69932 1.919312,-0.17607 1.919312,0.84057 v 34.49545 c 0,1.27822 1.032083,1.915 2.300837,1.915 h -0.02295 c 1.268753,0 2.314608,-0.63678 2.314608,-1.915 v -34.46072 c 0,-1.02119 1.239141,-1.54221 1.967749,-0.83364 l 3.351281,3.2511 c 0.914779,0.87994 2.374521,0.84057 3.238799,-0.0925 v -0.005 c 0.855094,-0.92162 0.811249,-2.36656 -0.0987,-3.2349 l -7.672663,-7.35666 c -1.779053,-1.69269 -4.560348,-1.68344 -6.330221,0.0165 l -7.5349277,7.29184 c -0.901006,0.86602 -0.944623,2.29939 -0.096415,3.21867 l 0.022952,0.0232 c 0.8573891,0.93087 2.3008336,0.98181 3.2204349,0.11567"
         id="arrow_right-[#365]"
         style="fill:#000000;fill-rule:evenodd;stroke:none;stroke-width:2.29554"
         transform="matrix(0.40505862,0,0,0.40505862,-5.995725,-39.308768)" /></g></g></svg>
