<?xml version="1.0" encoding="UTF-8" standalone="no"?>
<!-- Created with Inkscape (http://www.inkscape.org/) -->

<svg
   width="255.99998"
   height="128"
   viewBox="0 0 67.733328 33.866666"
   version="1.1"
   id="svg8"
   xml:space="preserve"
   xmlns="http://www.w3.org/2000/svg"
   xmlns:svg="http://www.w3.org/2000/svg"
   xmlns:rdf="http://www.w3.org/1999/02/22-rdf-syntax-ns#"
   xmlns:cc="http://creativecommons.org/ns#"
   xmlns:dc="http://purl.org/dc/elements/1.1/"><defs
     id="defs2" /><metadata
     id="metadata5"><rdf:RDF><cc:Work
         rdf:about=""><dc:format>image/svg+xml</dc:format><dc:type
           rdf:resource="http://purl.org/dc/dcmitype/StillImage" /><dc:title /></cc:Work></rdf:RDF></metadata><g
     id="layer17"
     style="display:inline"
     transform="translate(-1.5333352e-6,-16.933333)"><g
       id="Page-1"
       transform="matrix(-3.3866659,0,0,3.0788121,67.733328,16.933333)"
       style="display:inline;fill:none;fill-rule:evenodd;stroke:none;stroke-width:1"><g
         transform="translate(-260,-6684)"
         id="Dribbble-Light-Preview"
         style="fill:#000000"><g
           transform="translate(56,160)"
           id="icons"><path
             id="arrow_up-[#337]"
             d="m 223.70769,6534.6338 v 0 c 0.38975,-0.4049 0.38975,-1.0604 0,-1.4643 l -8.26356,-8.5629 c -0.78049,-0.8088 -2.04666,-0.8088 -2.82714,0 l -8.32453,8.625 c -0.38575,0.4008 -0.39074,1.048 -0.01,1.4539 0.38874,0.4153 1.02932,0.4194 1.42406,0.011 l 7.61699,-7.8939 c 0.39074,-0.4049 1.02333,-0.4049 1.41407,0 l 7.55703,7.8308 c 0.38975,0.4049 1.02333,0.4049 1.41307,0" /></g></g></g></g></svg>
