<?xml version="1.0" encoding="UTF-8" standalone="no"?>
<!-- Created with Inkscape (http://www.inkscape.org/) -->

<svg
   width="228.69806"
   height="205.27795"
   viewBox="0 0 60.509694 54.313124"
   version="1.1"
   id="svg8"
   xml:space="preserve"
   xmlns="http://www.w3.org/2000/svg"
   xmlns:svg="http://www.w3.org/2000/svg"
   xmlns:rdf="http://www.w3.org/1999/02/22-rdf-syntax-ns#"
   xmlns:cc="http://creativecommons.org/ns#"
   xmlns:dc="http://purl.org/dc/elements/1.1/"><defs
     id="defs2" /><metadata
     id="metadata5"><rdf:RDF><cc:Work
         rdf:about=""><dc:format>image/svg+xml</dc:format><dc:type
           rdf:resource="http://purl.org/dc/dcmitype/StillImage" /><dc:title /></cc:Work></rdf:RDF></metadata><g
     id="layer5"
     style="display:inline"
     transform="translate(-275.3352,-142.65975)"><g
       style="display:inline;fill:none"
       id="g3-3-0"
       transform="matrix(2.4687785,0,0,2.4687785,284.00055,140.19097)"><path
         d="M 14,3.5 V 11 4.5 C 14,3.67157 14.6716,3 15.5,3 16.3284,3 17,3.67157 17,4.5 V 11 7.5 C 17,6.67157 17.6716,6 18.5,6 19.3284,6 20,6.67157 20,7.5 V 16 c 0,3.3137 -2.6863,6 -6,6 H 12.8727 C 11.3483,22 9.88112,21.4198 8.76904,20.3772 L 3.81045,15.7285 c -0.7168,-0.672 -0.73505,-1.8039 -0.04029,-2.4987 0.67923,-0.6792 1.78047,-0.6792 2.45969,0 L 8.00001,15 V 6.5 c 0,-0.82843 0.67157,-1.5 1.5,-1.5 C 10.3284,5 11,5.67157 11,6.5 V 11 3.5 C 11,2.67157 11.6716,2 12.5,2 13.3284,2 14,2.67157 14,3.5 Z"
         stroke="#000000"
         stroke-width="2"
         stroke-linecap="round"
         stroke-linejoin="round"
         id="path1-6-9-3" /><path
         d="m 160.52138,146.17472 -6.77977,6.77976 c -1.49833,1.49832 -3.92549,1.49832 -5.42382,0 l -6.77977,-6.77976 c -0.74848,-0.74849 -0.74848,-1.96342 1e-5,-2.71191 0.74847,-0.74849 1.96341,-0.74849 2.7119,0 l 3.22581,3.22581 c 0.6034,0.6034 1.63663,0.17493 1.63663,-0.67933 v -8.20352 -26.72044 c 0,-0.85424 -1.03323,-1.28273 -1.63663,-0.67933 l -3.22581,3.22582 c -0.74849,0.74849 -1.96343,0.74849 -2.71191,0 -0.74848,-0.74849 -0.74848,-1.96342 0,-2.71191 l 6.77977,-6.77978 c 1.49833,-1.49832 3.92549,-1.49832 5.42382,0 l 6.77976,6.77978 c 0.74849,0.74849 0.74849,1.96342 0,2.71191 -0.74848,0.74849 -1.96342,0.74849 -2.71191,0 l -3.2258,-3.22582 c -0.6034,-0.6034 -1.63664,-0.17491 -1.63664,0.67933 0,20.96848 0,27.52587 0,34.92396 0,0.85426 1.03324,1.28273 1.63664,0.67933 l 3.22581,-3.22581 c 0.74848,-0.74849 1.96342,-0.74849 2.7119,0 0.74849,0.74849 0.74849,1.96342 1e-5,2.71191"
         id="arrow_left_down_right_up-[#379]"
         style="fill:#000000;fill-rule:evenodd;stroke:none;stroke-width:1.9176"
         transform="matrix(0.40505862,0,0,0.40505862,-60.613785,-40.188654)" /></g></g></svg>
