<?xml version="1.0" encoding="UTF-8" standalone="no"?>
<!-- Created with Inkscape (http://www.inkscape.org/) -->

<svg
   width="198.43518"
   height="174.36063"
   viewBox="0 0 52.502641 46.132915"
   version="1.1"
   id="svg8"
   xml:space="preserve"
   xmlns="http://www.w3.org/2000/svg"
   xmlns:svg="http://www.w3.org/2000/svg"
   xmlns:rdf="http://www.w3.org/1999/02/22-rdf-syntax-ns#"
   xmlns:cc="http://creativecommons.org/ns#"
   xmlns:dc="http://purl.org/dc/elements/1.1/"><defs
     id="defs2" /><metadata
     id="metadata5"><rdf:RDF><cc:Work
         rdf:about=""><dc:format>image/svg+xml</dc:format><dc:type
           rdf:resource="http://purl.org/dc/dcmitype/StillImage" /><dc:title /></cc:Work></rdf:RDF></metadata><g
     id="layer4"
     style="display:inline"
     transform="translate(-142.40927,-150.74234)"><g
       style="display:inline;fill:none"
       id="g3-3-0-3"
       transform="matrix(1.8895481,0,0,1.8895481,143.07516,149.26023)"><path
         d="M 14,5.6991603 V 13.19916 6.6991603 c 0,-0.82843 0.6716,-1.5 1.5,-1.5 0.8284,0 1.5,0.67157 1.5,1.5 V 13.19916 9.6991603 c 0,-0.82843 0.6716,-1.5 1.5,-1.5 0.8284,0 1.5,0.67157 1.5,1.5 V 18.19916 c 0,3.3137 -2.6863,6 -6,6 h -1.1273 c -1.5244,0 -2.99158,-0.5802 -4.10366,-1.6228 l -4.95859,-4.6487 c -0.7168,-0.672 -0.73505,-1.8039 -0.04029,-2.4987 0.67923,-0.6792 1.78047,-0.6792 2.45969,0 l 1.77016,1.7702 V 8.6991603 c 0,-0.82843 0.67157,-1.5 1.5,-1.5 0.82839,0 1.49999,0.67157 1.49999,1.5 V 13.19916 5.6991603 c 0,-0.82843 0.6716,-1.5 1.5,-1.5 0.8284,0 1.5,0.67157 1.5,1.5 z"
         stroke="#000000"
         stroke-width="2"
         stroke-linecap="round"
         stroke-linejoin="round"
         id="path1-6-9-3-1" /><path
         id="arrow_up-[#337]-9-5-7"
         d="m 223.70769,6534.6338 v 0 c 0.38975,-0.4049 0.38975,-1.0604 0,-1.4643 l -8.26356,-8.5629 c -0.78049,-0.8088 -2.04666,-0.8088 -2.82714,0 l -8.32453,8.625 c -0.38575,0.4008 -0.39074,1.048 -0.01,1.4539 0.38874,0.4153 1.02932,0.4194 1.42406,0.011 l 7.61699,-7.8939 c 0.39074,-0.4049 1.02333,-0.4049 1.41407,0 l 7.55703,7.8308 c 0.38975,0.4049 1.02333,0.4049 1.41307,0"
         style="fill:#000000;fill-rule:evenodd;stroke:none;stroke-width:1"
         transform="matrix(0,-0.58277739,0.52980186,0,-3434.8217,131.55168)" /><path
         id="arrow_up-[#337]-9-5"
         d="m 223.70769,6534.6338 v 0 c 0.38975,-0.4049 0.38975,-1.0604 0,-1.4643 l -8.26356,-8.5629 c -0.78049,-0.8088 -2.04666,-0.8088 -2.82714,0 l -8.32453,8.625 c -0.38575,0.4008 -0.39074,1.048 -0.01,1.4539 0.38874,0.4153 1.02932,0.4194 1.42406,0.011 l 7.61699,-7.8939 c 0.39074,-0.4049 1.02333,-0.4049 1.41407,0 l 7.55703,7.8308 c 0.38975,0.4049 1.02333,0.4049 1.41307,0"
         style="fill:#000000;fill-rule:evenodd;stroke:none;stroke-width:1"
         transform="matrix(0,-0.58277739,-0.52980186,0,3461.9027,131.32651)" /></g></g></svg>
