<?xml version="1.0" encoding="UTF-8" standalone="no"?>
<!-- Created with Inkscape (http://www.inkscape.org/) -->

<svg
   width="230.42175"
   height="256"
   viewBox="0 0 60.965754 67.733332"
   version="1.1"
   id="svg8"
   xml:space="preserve"
   xmlns="http://www.w3.org/2000/svg"
   xmlns:svg="http://www.w3.org/2000/svg"
   xmlns:rdf="http://www.w3.org/1999/02/22-rdf-syntax-ns#"
   xmlns:cc="http://creativecommons.org/ns#"
   xmlns:dc="http://purl.org/dc/elements/1.1/"><defs
     id="defs2" /><metadata
     id="metadata5"><rdf:RDF><cc:Work
         rdf:about=""><dc:format>image/svg+xml</dc:format><dc:type
           rdf:resource="http://purl.org/dc/dcmitype/StillImage" /><dc:title /></cc:Work></rdf:RDF></metadata><g
     id="layer8"
     style="display:inline"
     transform="translate(-274.0525,-67.733332)"><g
       style="display:inline;fill:none"
       id="g2"
       transform="matrix(3.3864042,0,0,3.3864042,263.89853,60.960524)"><path
         d="M 16.584,6 C 15.8124,4.2341 14.0503,3 12,3 9.23858,3 7,5.23858 7,8 v 2.0288 m 0,0 C 7.47142,10 8.05259,10 8.8,10 h 6.4 c 1.6802,0 2.5202,0 3.162,0.327 0.5645,0.2876 1.0234,0.7465 1.311,1.311 C 20,12.2798 20,13.1198 20,14.8 v 1.4 c 0,1.6802 0,2.5202 -0.327,3.162 -0.2876,0.5645 -0.7465,1.0234 -1.311,1.311 C 17.7202,21 16.8802,21 15.2,21 H 8.8 C 7.11984,21 6.27976,21 5.63803,20.673 5.07354,20.3854 4.6146,19.9265 4.32698,19.362 4,18.7202 4,17.8802 4,16.2 V 14.8 C 4,13.1198 4,12.2798 4.32698,11.638 4.6146,11.0735 5.07354,10.6146 5.63803,10.327 5.99429,10.1455 6.41168,10.0647 7,10.0288 Z"
         stroke="#000000"
         stroke-width="2"
         stroke-linecap="round"
         stroke-linejoin="round"
         id="path1-5" /></g></g></svg>
