<?xml version="1.0" encoding="UTF-8" standalone="no"?>
<!-- Created with Inkscape (http://www.inkscape.org/) -->

<svg
   width="230.42175"
   height="256"
   viewBox="0 0 60.965754 67.733332"
   version="1.1"
   id="svg8"
   xml:space="preserve"
   xmlns="http://www.w3.org/2000/svg"
   xmlns:svg="http://www.w3.org/2000/svg"
   xmlns:rdf="http://www.w3.org/1999/02/22-rdf-syntax-ns#"
   xmlns:cc="http://creativecommons.org/ns#"
   xmlns:dc="http://purl.org/dc/elements/1.1/"><defs
     id="defs2" /><metadata
     id="metadata5"><rdf:RDF><cc:Work
         rdf:about=""><dc:format>image/svg+xml</dc:format><dc:type
           rdf:resource="http://purl.org/dc/dcmitype/StillImage" /><dc:title /></cc:Work></rdf:RDF></metadata><g
     id="layer9"
     style="display:inline"
     transform="translate(-274.0525)"><g
       style="display:inline;fill:none"
       id="g1"
       transform="matrix(3.3864042,0,0,3.3864042,263.89853,-6.7728079)"><path
         d="M 7,10.0288 C 7.47142,10 8.05259,10 8.8,10 h 6.4 c 0.7474,0 1.3286,0 1.8,0.0288 m -10,0 C 6.41168,10.0647 5.99429,10.1455 5.63803,10.327 5.07354,10.6146 4.6146,11.0735 4.32698,11.638 4,12.2798 4,13.1198 4,14.8 v 1.4 c 0,1.6802 0,2.5202 0.32698,3.162 0.28762,0.5645 0.74656,1.0234 1.31105,1.311 C 6.27976,21 7.11984,21 8.8,21 h 6.4 c 1.6802,0 2.5202,0 3.162,-0.327 0.5645,-0.2876 1.0234,-0.7465 1.311,-1.311 C 20,18.7202 20,17.8802 20,16.2 V 14.8 C 20,13.1198 20,12.2798 19.673,11.638 19.3854,11.0735 18.9265,10.6146 18.362,10.327 18.0057,10.1455 17.5883,10.0647 17,10.0288 m -10,0 V 8 c 0,-2.76142 2.23858,-5 5,-5 2.7614,0 5,2.23858 5,5 v 2.0288"
         stroke="#000000"
         stroke-width="2"
         stroke-linecap="round"
         stroke-linejoin="round"
         id="path1" /></g></g></svg>
